<svg xmlns="http://www.w3.org/2000/svg" viewBox="0 0 24 24" width="24" height="24">
  <!-- White Background Circle -->
  <circle cx="12" cy="12" r="12" fill="#FFFFFF" />
  
  <!-- Primary Green Leaf Vector -->
  <path d="M12 3C7.02944 3 3 7.02944 3 12C3 16.9706 7.02944 21 12 21C16.9706 21 21 16.9706 21 12C21 7.02944 16.9706 3 12 3ZM12 5C15.866 5 19 8.13401 19 12C19 15.866 15.866 19 12 19C8.13401 19 5 15.866 5 12C5 8.13401 8.13401 5 12 5ZM12 7C9.23858 7 7 9.23858 7 12C7 14.7614 9.23858 17 12 17C14.7614 17 17 14.7614 17 12C17 9.23858 14.7614 7 12 7ZM10.5 9.5C10.5 8.94772 10.9477 8.5 11.5 8.5H12.5C13.0523 8.5 13.5 8.94772 13.5 9.5V11.5L14.5 12.5C14.8905 12.8905 14.8905 13.5236 14.5 13.9142C14.1095 14.3047 13.4764 14.3047 13.0858 13.9142L11.5 12.3284V9.5H10.5ZM12 10.5V11.9142L13.0858 13L13.5 12.5858L12.0858 11.1716V10.5H12Z" fill="#166534"/>
</svg>
